<svg width="449" height="88" fill="none" xmlns="http://www.w3.org/2000/svg"><g clip-path="url(#clip0_30_92)" fill="#6D91EE"><path d="M69.912 21.175a1.106 1.106 0 00-.15-.06 20.558 20.558 0 00-7.483-1.403h-2.127a1.064 1.064 0 00-.989.663 1.07 1.07 0 00-.081.41v28.593a1.075 1.075 0 001.069 1.033 1.068 1.068 0 001.069-1.033v-27.52h1.056a18.48 18.48 0 016.108 1.035v20.214c.001.89.353 1.742.98 2.372a3.342 3.342 0 002.363.984h9.135v4.54h-7.796a1.066 1.066 0 00-1.025.653 1.076 1.076 0 00.603 1.423c.134.051.278.075.421.07h7.797v4.421H69.775a1.066 1.066 0 00-1.024.652 1.076 1.076 0 00.603 1.423c.134.051.277.075.421.07h12.157A1.066 1.066 0 0083 58.643V40.505a20.876 20.876 0 00-3.587-11.68 20.771 20.771 0 00-9.5-7.65zm1.81 23.142a1.205 1.205 0 01-1.206-1.211V23.798a18.627 18.627 0 017.544 6.875 18.712 18.712 0 012.802 9.832v3.812h-9.14zm-60.825 6.817c-2.155 0-4.262.641-6.054 1.843a10.925 10.925 0 00-4.014 4.906 10.967 10.967 0 002.363 11.915 10.864 10.864 0 0011.875 2.37 10.905 10.905 0 004.89-4.027 10.96 10.96 0 001.837-6.074 10.964 10.964 0 00-3.195-7.727 10.89 10.89 0 00-7.702-3.206zm0 19.721a8.739 8.739 0 01-4.866-1.48 8.782 8.782 0 01-3.227-3.945 8.816 8.816 0 011.9-9.577 8.732 8.732 0 019.546-1.905 8.765 8.765 0 013.93 3.236 8.809 8.809 0 011.476 4.883 8.812 8.812 0 01-2.568 6.211 8.754 8.754 0 01-6.191 2.577z"/><path d="M10.897 59.168a2.882 2.882 0 00-2.67 1.79 2.907 2.907 0 00.627 3.159 2.886 2.886 0 003.148.628 2.891 2.891 0 001.784-2.678 2.91 2.91 0 00-.847-2.049 2.887 2.887 0 00-2.042-.85zm0 3.653a.753.753 0 01-.697-.468.759.759 0 01.55-1.031.752.752 0 01.774.321.759.759 0 01-.627 1.178zm46.431-11.687c-2.155 0-4.262.641-6.053 1.843a10.925 10.925 0 00-4.014 4.906 10.968 10.968 0 00-.62 6.317 10.945 10.945 0 002.982 5.598 10.864 10.864 0 0011.875 2.37 10.905 10.905 0 004.89-4.027 10.958 10.958 0 001.837-6.074 10.963 10.963 0 00-3.195-7.727 10.89 10.89 0 00-7.702-3.206zm0 19.721a8.739 8.739 0 01-4.868-1.477 8.782 8.782 0 01-3.23-3.942 8.815 8.815 0 011.893-9.58 8.733 8.733 0 019.547-1.91 8.766 8.766 0 013.932 3.238 8.81 8.81 0 011.477 4.883 8.812 8.812 0 01-2.565 6.208 8.754 8.754 0 01-6.186 2.58z"/><path d="M57.328 59.168a2.882 2.882 0 00-2.669 1.79 2.907 2.907 0 00.627 3.159 2.886 2.886 0 003.148.628 2.891 2.891 0 001.784-2.678 2.907 2.907 0 00-.848-2.049 2.887 2.887 0 00-2.041-.85zm0 3.653a.753.753 0 01-.74-.905.758.758 0 01.593-.594.752.752 0 01.775.321.76.76 0 01-.094.956.753.753 0 01-.534.222zm-12.582-5.245H23.352a1.066 1.066 0 00-1.024.652 1.077 1.077 0 00.602 1.423c.135.051.278.075.422.07h21.394a1.068 1.068 0 001.11-1.073 1.078 1.078 0 00-.689-1.002 1.066 1.066 0 00-.421-.07zM8.836 26.153h.35l3.335 23.443a1.076 1.076 0 00.783.96 1.066 1.066 0 001.163-.422 1.075 1.075 0 00.166-.84l-3.287-23.141h41.926L49.7 51.017a1.077 1.077 0 00.483 1.143 1.069 1.069 0 001.63-.84l3.62-25.17h.351a1.068 1.068 0 001.068-1.073v-1.494a4.796 4.796 0 00-1.397-3.38 4.764 4.764 0 00-3.368-1.403H38.358a6.241 6.241 0 00-2.194-3.456 6.206 6.206 0 00-7.714 0 6.241 6.241 0 00-2.194 3.456H12.527a4.764 4.764 0 00-3.368 1.402 4.796 4.796 0 00-1.397 3.38v1.498a1.075 1.075 0 00.659.991c.13.054.268.082.409.082h.006zM32.31 16.145c.83.002 1.64.257 2.322.731a4.109 4.109 0 011.5 1.924h-7.643a4.109 4.109 0 011.499-1.924 4.088 4.088 0 012.322-.731zM9.905 23.583c.001-.7.278-1.37.771-1.864a2.627 2.627 0 011.857-.773h39.554a2.63 2.63 0 011.857.774c.493.495.77 1.165.77 1.864v.424H9.909l-.003-.425z"/><path d="M30.584 48.89a1.067 1.067 0 001.07-1.074 1.075 1.075 0 00-1.07-1.073h-5.953l1.66-2.897.332 1.203a1.073 1.073 0 001.03.787 1.053 1.053 0 00.66-.227 1.07 1.07 0 00.37-1.132l-.998-3.62a1.061 1.061 0 00-.996-.844h-.059c-.093 0-.186.013-.276.037l-3.667 1.018a1.07 1.07 0 00-.773 1.178 1.074 1.074 0 001.058.93c.096 0 .192-.014.285-.04l1.159-.321-2.565 4.465a1.076 1.076 0 00.93 1.608l7.803.001zm11.556.002a1.067 1.067 0 001.07-1.071c0-.188-.05-.373-.143-.536l-3.89-6.786a1.07 1.07 0 00-1.46-.395 1.07 1.07 0 00-.526 1.068c.018.14.063.274.133.396l2.967 5.178h-3.33l.876-.89a1.076 1.076 0 00-1.176-1.748 1.07 1.07 0 00-.346.234l-2.628 2.672a1.067 1.067 0 00-.237 1.282.158.158 0 00.01.024l.015.023c.048.086.107.164.177.233l2.706 2.69a1.07 1.07 0 001.826-.769 1.077 1.077 0 00-.317-.759l-.855-.847 5.129.001zM31.606 36.491a1.076 1.076 0 00.767 1.308l3.62.941a1.053 1.053 0 00.866-.089 1.08 1.08 0 00.435-.477l.013-.032c.02-.046.037-.094.05-.143v-.01l.96-3.696a1.076 1.076 0 00-.759-1.337 1.064 1.064 0 00-1.136.41 1.073 1.073 0 00-.175.388l-.302 1.169-2.572-4.46a1.068 1.068 0 00-1.851 0l-3.904 6.777a1.076 1.076 0 00.377 1.488 1.067 1.067 0 001.474-.413l2.98-5.172 1.668 2.892-1.207-.313a1.067 1.067 0 00-1.304.77z"/></g><path d="M130.12 57l-10.38-17.52H112V57h-4.2V15.06h12.6c4.68 0 8.22 1.12 10.62 3.36 2.44 2.24 3.66 5.18 3.66 8.82 0 3.04-.88 5.64-2.64 7.8-1.72 2.12-4.28 3.5-7.68 4.14L135.16 57h-5.04zM112 36.06h8.46c3.28 0 5.74-.8 7.38-2.4 1.68-1.6 2.52-3.74 2.52-6.42 0-2.76-.8-4.88-2.4-6.36-1.6-1.52-4.12-2.28-7.56-2.28H112v17.46zm45.355 21.42c-3.08 0-5.86-.68-8.34-2.04-2.44-1.4-4.38-3.36-5.82-5.88-1.4-2.56-2.1-5.54-2.1-8.94 0-3.4.72-6.36 2.16-8.88 1.44-2.56 3.4-4.52 5.88-5.88 2.48-1.4 5.26-2.1 8.34-2.1s5.86.7 8.34 2.1c2.52 1.36 4.48 3.32 5.88 5.88 1.44 2.52 2.16 5.48 2.16 8.88 0 3.36-.72 6.32-2.16 8.88-1.44 2.56-3.42 4.54-5.94 5.94-2.52 1.36-5.32 2.04-8.4 2.04zm0-3.66c2.16 0 4.16-.48 6-1.44 1.84-1 3.32-2.48 4.44-4.44 1.16-2 1.74-4.44 1.74-7.32s-.56-5.3-1.68-7.26c-1.12-2-2.6-3.48-4.44-4.44-1.84-1-3.84-1.5-6-1.5s-4.16.5-6 1.5c-1.84.96-3.32 2.44-4.44 4.44-1.08 1.96-1.62 4.38-1.62 7.26s.54 5.32 1.62 7.32c1.12 1.96 2.58 3.44 4.38 4.44 1.84.96 3.84 1.44 6 1.44zm52.536-29.58V57h-4.2v-5.76c-.96 2.04-2.44 3.6-4.44 4.68-2 1.08-4.24 1.62-6.72 1.62-3.92 0-7.12-1.2-9.6-3.6-2.48-2.44-3.72-5.96-3.72-10.56V24.24h4.14V42.9c0 3.56.88 6.28 2.64 8.16 1.8 1.88 4.24 2.82 7.32 2.82 3.16 0 5.68-1 7.56-3s2.82-4.94 2.82-8.82V24.24h4.2zm24.949-.6c3.92 0 7.12 1.22 9.6 3.66 2.48 2.4 3.72 5.9 3.72 10.5V57h-4.14V38.28c0-3.56-.9-6.28-2.7-8.16-1.76-1.88-4.18-2.82-7.26-2.82-3.16 0-5.68 1-7.56 3s-2.82 4.94-2.82 8.82V57h-4.2V24.24h4.2v5.58c1.04-2 2.54-3.52 4.5-4.56 1.96-1.08 4.18-1.62 6.66-1.62zm20.688 16.92c0-3.36.68-6.3 2.04-8.82 1.36-2.56 3.22-4.52 5.58-5.88 2.4-1.4 5.1-2.1 8.1-2.1 2.88 0 5.48.7 7.8 2.1 2.32 1.4 4.02 3.22 5.1 5.46V12.6h4.2V57h-4.2v-7.32c-1 2.28-2.64 4.16-4.92 5.64-2.28 1.44-4.96 2.16-8.04 2.16-3 0-5.7-.7-8.1-2.1-2.36-1.4-4.22-3.38-5.58-5.94-1.32-2.56-1.98-5.52-1.98-8.88zm28.62.06c0-2.64-.54-4.96-1.62-6.96s-2.56-3.54-4.44-4.62c-1.84-1.08-3.88-1.62-6.12-1.62-2.32 0-4.4.52-6.24 1.56-1.84 1.04-3.3 2.56-4.38 4.56-1.04 1.96-1.56 4.3-1.56 7.02 0 2.68.52 5.04 1.56 7.08 1.08 2 2.54 3.54 4.38 4.62 1.84 1.04 3.92 1.56 6.24 1.56 2.24 0 4.28-.54 6.12-1.62 1.88-1.08 3.36-2.62 4.44-4.62 1.08-2 1.62-4.32 1.62-6.96zM336.722 57l-10.38-17.52h-7.74V57h-4.2V15.06h12.6c4.68 0 8.22 1.12 10.62 3.36 2.44 2.24 3.66 5.18 3.66 8.82 0 3.04-.88 5.64-2.64 7.8-1.72 2.12-4.28 3.5-7.68 4.14l10.8 17.82h-5.04zm-18.12-20.94h8.46c3.28 0 5.74-.8 7.38-2.4 1.68-1.6 2.52-3.74 2.52-6.42 0-2.76-.8-4.88-2.4-6.36-1.6-1.52-4.12-2.28-7.56-2.28h-8.4v17.46zm45.354 21.42c-3.08 0-5.86-.68-8.34-2.04-2.44-1.4-4.38-3.36-5.82-5.88-1.4-2.56-2.1-5.54-2.1-8.94 0-3.4.72-6.36 2.16-8.88 1.44-2.56 3.4-4.52 5.88-5.88 2.48-1.4 5.26-2.1 8.34-2.1s5.86.7 8.34 2.1c2.52 1.36 4.48 3.32 5.88 5.88 1.44 2.52 2.16 5.48 2.16 8.88 0 3.36-.72 6.32-2.16 8.88-1.44 2.56-3.42 4.54-5.94 5.94-2.52 1.36-5.32 2.04-8.4 2.04zm0-3.66c2.16 0 4.16-.48 6-1.44 1.84-1 3.32-2.48 4.44-4.44 1.16-2 1.74-4.44 1.74-7.32s-.56-5.3-1.68-7.26c-1.12-2-2.6-3.48-4.44-4.44-1.84-1-3.84-1.5-6-1.5s-4.16.5-6 1.5c-1.84.96-3.32 2.44-4.44 4.44-1.08 1.96-1.62 4.38-1.62 7.26s.54 5.32 1.62 7.32c1.12 1.96 2.58 3.44 4.38 4.44 1.84.96 3.84 1.44 6 1.44zm22.237-13.2c0-3.4.68-6.36 2.04-8.88 1.36-2.56 3.24-4.52 5.64-5.88 2.4-1.4 5.14-2.1 8.22-2.1 4.04 0 7.36 1 9.96 3 2.64 2 4.34 4.72 5.1 8.16h-4.5c-.56-2.36-1.78-4.2-3.66-5.52-1.84-1.36-4.14-2.04-6.9-2.04-2.2 0-4.18.5-5.94 1.5-1.76 1-3.16 2.5-4.2 4.5-1 1.96-1.5 4.38-1.5 7.26s.5 5.32 1.5 7.32c1.04 2 2.44 3.5 4.2 4.5 1.76 1 3.74 1.5 5.94 1.5 2.76 0 5.06-.66 6.9-1.98 1.88-1.36 3.1-3.24 3.66-5.64h4.5c-.76 3.36-2.46 6.06-5.1 8.1-2.64 2.04-5.96 3.06-9.96 3.06-3.08 0-5.82-.68-8.22-2.04-2.4-1.4-4.28-3.36-5.64-5.88-1.36-2.56-2.04-5.54-2.04-8.94zM442.609 57l-13.5-14.7V57h-4.2V12.6h4.2v26.28l13.2-14.64h5.88l-15.54 16.32L448.309 57h-5.7zM115.327 67.195v3.276h-3.948V82h-4.116V70.471h-3.906v-3.276h11.97zm21.494 5.103a5.358 5.358 0 011.68-1.596 4.073 4.073 0 012.121-.588v4.389h-1.155c-.896 0-1.561.175-1.995.525-.434.35-.651.959-.651 1.827V82h-4.116V70.219h4.116v2.079zm33.185-2.079V82h-4.137v-1.68c-.35.532-.833.966-1.449 1.302-.616.322-1.323.483-2.121.483-1.372 0-2.457-.448-3.255-1.344-.784-.91-1.176-2.142-1.176-3.696v-6.846h4.095v6.321c0 .672.175 1.204.525 1.596.364.378.84.567 1.428.567.602 0 1.078-.189 1.428-.567.35-.392.525-.924.525-1.596v-6.321h4.137zm23.217 11.928c-1.064 0-2.016-.175-2.856-.525-.826-.364-1.484-.854-1.974-1.47a3.91 3.91 0 01-.798-2.121h3.99c.056.378.231.672.525.882.294.21.658.315 1.092.315.336 0 .602-.07.798-.21a.643.643 0 00.294-.546c0-.294-.161-.511-.483-.651-.322-.14-.854-.294-1.596-.462-.84-.168-1.54-.357-2.1-.567a3.654 3.654 0 01-1.47-1.029c-.406-.476-.609-1.12-.609-1.932 0-.7.189-1.33.567-1.89.378-.574.931-1.029 1.659-1.365.742-.336 1.631-.504 2.667-.504 1.54 0 2.751.378 3.633 1.134.882.756 1.393 1.75 1.533 2.982h-3.717c-.07-.378-.238-.665-.504-.861-.252-.21-.595-.315-1.029-.315-.336 0-.595.063-.777.189a.62.62 0 00-.252.525c0 .28.161.497.483.651.322.14.84.287 1.554.441.854.182 1.561.385 2.121.609a3.651 3.651 0 011.491 1.092c.434.49.651 1.162.651 2.016a3.02 3.02 0 01-.609 1.848c-.392.546-.959.98-1.701 1.302-.728.308-1.589.462-2.583.462zm30.52-12.033c1.344 0 2.408.455 3.192 1.365.798.896 1.197 2.114 1.197 3.654V82h-4.116v-6.321c0-.672-.175-1.197-.525-1.575-.35-.392-.819-.588-1.407-.588-.616 0-1.099.196-1.449.588-.35.378-.525.903-.525 1.575V82h-4.116V66.46h4.116v5.439a3.972 3.972 0 011.47-1.281c.63-.336 1.351-.504 2.163-.504zm55.628-2.919V82h-4.116v-5.943h-5.019V82h-4.116V67.195h4.116v5.565h5.019v-5.565h4.116zm17.539 8.904c0-1.218.217-2.282.651-3.192.448-.91 1.05-1.61 1.806-2.1a4.674 4.674 0 012.562-.735c.812 0 1.512.161 2.1.483a3.495 3.495 0 011.365 1.302v-1.638h4.116V82h-4.116v-1.638c-.322.546-.784.98-1.386 1.302-.588.322-1.281.483-2.079.483a4.674 4.674 0 01-2.562-.735c-.756-.49-1.358-1.19-1.806-2.1-.434-.924-.651-1.995-.651-3.213zm8.484 0c0-.756-.21-1.351-.63-1.785a1.986 1.986 0 00-1.512-.651c-.616 0-1.127.217-1.533.651-.406.42-.609 1.015-.609 1.785 0 .756.203 1.358.609 1.806.406.434.917.651 1.533.651.602 0 1.106-.217 1.512-.651.42-.434.63-1.036.63-1.806zm34.37-5.88V82h-4.137v-1.68c-.35.532-.833.966-1.449 1.302-.616.322-1.323.483-2.121.483-1.372 0-2.457-.448-3.255-1.344-.784-.91-1.176-2.142-1.176-3.696v-6.846h4.095v6.321c0 .672.175 1.204.525 1.596.364.378.84.567 1.428.567.602 0 1.078-.189 1.428-.567.35-.392.525-.924.525-1.596v-6.321h4.137zm22.314-3.759V82h-4.116V66.46h4.116zm20.278 2.667c-.728 0-1.316-.196-1.764-.588a1.986 1.986 0 01-.651-1.512c0-.616.217-1.127.651-1.533.448-.406 1.036-.609 1.764-.609.714 0 1.288.203 1.722.609.448.406.672.917.672 1.533 0 .602-.224 1.106-.672 1.512-.434.392-1.008.588-1.722.588zm2.037 1.092V82h-4.116V70.219h4.116zm25.906-.105c1.358 0 2.436.455 3.234 1.365.798.896 1.197 2.114 1.197 3.654V82h-4.116v-6.321c0-.672-.175-1.197-.525-1.575-.35-.392-.819-.588-1.407-.588-.616 0-1.099.196-1.449.588-.35.378-.525.903-.525 1.575V82h-4.116V70.219h4.116v1.68a3.972 3.972 0 011.47-1.281c.616-.336 1.323-.504 2.121-.504zm26.891-.042c.798 0 1.491.161 2.079.483a3.461 3.461 0 011.386 1.302v-1.638h4.116v11.655c0 1.106-.21 2.1-.63 2.982-.42.896-1.078 1.61-1.974 2.142-.882.532-2.002.798-3.36.798-1.82 0-3.276-.427-4.368-1.281-1.092-.854-1.715-2.016-1.869-3.486h4.053c.084.378.294.672.63.882.336.21.77.315 1.302.315 1.4 0 2.1-.784 2.1-2.352v-1.512c-.322.546-.784.98-1.386 1.302-.588.322-1.281.483-2.079.483a4.674 4.674 0 01-2.562-.735c-.756-.49-1.358-1.19-1.806-2.1-.434-.924-.651-1.995-.651-3.213s.217-2.282.651-3.192c.448-.91 1.05-1.61 1.806-2.1a4.674 4.674 0 012.562-.735zm3.465 6.027c0-.756-.21-1.351-.63-1.785a1.986 1.986 0 00-1.512-.651c-.616 0-1.127.217-1.533.651-.406.42-.609 1.015-.609 1.785 0 .756.203 1.358.609 1.806.406.434.917.651 1.533.651.602 0 1.106-.217 1.512-.651.42-.434.63-1.036.63-1.806z" fill="#6D91EE"/><defs><clipPath id="clip0_30_92"><path fill="#fff" transform="translate(0 14)" d="M0 0h83v59H0z"/></clipPath></defs></svg>